<?xml version="1.0" encoding="utf-8"?>
<!-- Generator: Adobe Illustrator 15.0.0, SVG Export Plug-In . SVG Version: 6.00 Build 0)  -->
<!DOCTYPE svg PUBLIC "-//W3C//DTD SVG 1.1//EN" "http://www.w3.org/Graphics/SVG/1.1/DTD/svg11.dtd">
<svg version="1.1" id="Layer_1" xmlns="http://www.w3.org/2000/svg" xmlns:xlink="http://www.w3.org/1999/xlink" x="0px" y="0px"
	 width="77.606px" height="111.1px" viewBox="0 0 77.606 111.1" enable-background="new 0 0 77.606 111.1" xml:space="preserve">
<g>
	<path stroke="#000000" stroke-width="0.982" stroke-linecap="round" stroke-linejoin="round" stroke-miterlimit="10" d="
		M23.196,42.249h-0.097l-6.238,2.95l-0.707-5.701l8.644-4h6.077L28.032,68h-7.089L23.196,42.249z"/>
	<path stroke="#000000" stroke-width="0.982" stroke-linecap="round" stroke-linejoin="round" stroke-miterlimit="10" d="
		M38.517,62.5c0.907,0.1,1.727,0.1,3.183,0c2.231-0.15,4.555-0.8,6.348-2c2.152-1.45,3.687-3.55,4.479-6l-0.141-0.05
		c-1.529,1.5-3.629,2.35-6.474,2.35c-5.305,0-9.453-3.85-8.902-10.15c0.556-6.351,5.943-11.701,12.839-11.701
		c8.053,0,11.303,6.4,10.638,14.001c-0.59,6.75-3.097,11.701-6.806,14.951c-3.234,2.8-7.469,4.35-12.357,4.55
		c-1.263,0.1-2.513,0.05-3.328,0L38.517,62.5z M44.379,46.199c-0.245,2.8,0.992,5.2,3.981,5.2c1.977,0,3.463-1,4.239-2.15
		c0.28-0.45,0.469-0.95,0.552-1.9c0.302-3.45-0.655-6.85-3.982-6.85C46.662,40.499,44.629,42.798,44.379,46.199z"/>
</g>
<g>
	<path fill="none" stroke="#000000" stroke-width="2" stroke-linecap="round" stroke-miterlimit="10" d="M15,27.08
		c2.297,0,2.297,1.84,4.595,1.84c2.299,0,2.299-1.84,4.597-1.84c2.299,0,2.299,1.84,4.599,1.84s2.3-1.84,4.599-1.84
		c2.3,0,2.3,1.84,4.6,1.84c2.299,0,2.299-1.84,4.598-1.84c2.299,0,2.299,1.84,4.599,1.84c2.301,0,2.301-1.84,4.603-1.84
		c2.303,0,2.303,1.84,4.606,1.84s2.303-1.84,4.605-1.84"/>
</g>
<g>
	<path fill="none" stroke="#000000" stroke-width="2" stroke-linecap="round" stroke-miterlimit="10" d="M60.833,77.92
		c-2.297,0-2.297-1.84-4.595-1.84c-2.298,0-2.298,1.84-4.597,1.84c-2.3,0-2.3-1.84-4.599-1.84s-2.299,1.84-4.599,1.84
		s-2.3-1.84-4.6-1.84c-2.299,0-2.299,1.84-4.598,1.84c-2.299,0-2.299-1.84-4.599-1.84c-2.301,0-2.301,1.84-4.603,1.84
		c-2.303,0-2.303-1.84-4.605-1.84s-2.303,1.84-4.606,1.84"/>
</g>
<circle fill="none" stroke="#000000" stroke-width="2" stroke-linecap="round" stroke-miterlimit="10" cx="47" cy="24.333" r="1"/>
<rect x="11" y="14" fill="none" stroke="#000000" stroke-width="2" stroke-linecap="round" stroke-linejoin="round" stroke-miterlimit="10" width="56" height="79"/>
<circle fill="none" stroke="#000000" stroke-width="2" stroke-linecap="round" stroke-miterlimit="10" cx="56" cy="24.333" r="1"/>
<circle fill="none" stroke="#000000" stroke-width="2" stroke-linecap="round" stroke-miterlimit="10" cx="47" cy="81.333" r="1"/>
<circle fill="none" stroke="#000000" stroke-width="2" stroke-linecap="round" stroke-miterlimit="10" cx="56" cy="81.333" r="1"/>
<line fill="none" stroke="#000000" stroke-width="2" stroke-linecap="round" stroke-miterlimit="10" x1="42" y1="81" x2="15" y2="81"/>
<g>
	
		<line fill="none" stroke="#000000" stroke-width="1.8227" stroke-linecap="round" stroke-miterlimit="10" x1="42" y1="81.109" x2="35.392" y2="85.875"/>
	
		<line fill="none" stroke="#000000" stroke-width="1.8227" stroke-linecap="round" stroke-miterlimit="10" x1="36.902" y1="81.109" x2="30.294" y2="85.875"/>
	
		<line fill="none" stroke="#000000" stroke-width="1.8227" stroke-linecap="round" stroke-miterlimit="10" x1="31.804" y1="81.109" x2="25.196" y2="85.875"/>
	
		<line fill="none" stroke="#000000" stroke-width="1.8227" stroke-linecap="round" stroke-miterlimit="10" x1="26.706" y1="81.109" x2="20.098" y2="85.875"/>
	
		<line fill="none" stroke="#000000" stroke-width="1.8227" stroke-linecap="round" stroke-miterlimit="10" x1="21.608" y1="81.109" x2="15" y2="85.875"/>
</g>
<line fill="none" stroke="#000000" stroke-width="2" stroke-linecap="round" stroke-miterlimit="10" x1="42" y1="24" x2="15" y2="24"/>
<g>
	
		<line fill="none" stroke="#000000" stroke-width="2" stroke-linecap="round" stroke-miterlimit="10" x1="42" y1="24" x2="42" y2="18"/>
	
		<line fill="none" stroke="#000000" stroke-width="2" stroke-linecap="round" stroke-miterlimit="10" x1="38" y1="24" x2="38" y2="18"/>
	
		<line fill="none" stroke="#000000" stroke-width="2" stroke-linecap="round" stroke-miterlimit="10" x1="34" y1="24" x2="34" y2="18"/>
	
		<line fill="none" stroke="#000000" stroke-width="2" stroke-linecap="round" stroke-miterlimit="10" x1="30" y1="24" x2="30" y2="18"/>
	
		<line fill="none" stroke="#000000" stroke-width="2" stroke-linecap="round" stroke-miterlimit="10" x1="26" y1="24" x2="26" y2="18"/>
</g>
<path fill="none" stroke="#000000" stroke-width="0.4132" d="M47.728,45.782"/>
<path fill="none" stroke="#000000" stroke-width="0.4132" d="M47.546,47.777"/>
<path fill="none" stroke="#000000" stroke-width="0.4132" d="M49.44,48.404"/>
<path fill="none" stroke="#000000" stroke-width="0.4132" d="M50.794,46.79"/>
<path fill="none" stroke="#000000" stroke-width="0.4132" d="M49.22,43.5"/>
<line fill="none" stroke="#000000" stroke-width="2.3715" stroke-linecap="round" stroke-linejoin="round" stroke-miterlimit="10" x1="11.833" y1="67.667" x2="66.25" y2="35"/>
<path fill="none" stroke="#000000" stroke-width="2" stroke-linecap="round" stroke-linejoin="round" stroke-miterlimit="10" d="
	M11,14"/>
<path fill="none" stroke="#000000" stroke-width="2" stroke-linecap="round" stroke-linejoin="round" stroke-miterlimit="10" d="
	M91,29"/>
<g>
	
		<line fill="none" stroke="#000000" stroke-width="2" stroke-linecap="round" stroke-linejoin="round" stroke-miterlimit="10" x1="67" y1="93" x2="11" y2="93"/>
	
		<line fill="none" stroke="#000000" stroke-linecap="round" stroke-linejoin="round" stroke-miterlimit="10" x1="61" y1="95.5" x2="17" y2="95.5"/>
	
		<line fill="none" stroke="#000000" stroke-linecap="round" stroke-linejoin="round" stroke-miterlimit="10" x1="56" y1="97.5" x2="22" y2="97.5"/>
	
		<line fill="none" stroke="#000000" stroke-linecap="round" stroke-linejoin="round" stroke-miterlimit="10" x1="50" y1="99.5" x2="28" y2="99.5"/>
</g>
</svg>
