<?xml version="1.0" encoding="utf-8"?>
<!-- Generator: Adobe Illustrator 15.0.0, SVG Export Plug-In . SVG Version: 6.00 Build 0)  -->
<!DOCTYPE svg PUBLIC "-//W3C//DTD SVG 1.1//EN" "http://www.w3.org/Graphics/SVG/1.1/DTD/svg11.dtd">
<svg version="1.1" id="Layer_1" xmlns="http://www.w3.org/2000/svg" xmlns:xlink="http://www.w3.org/1999/xlink" x="0px" y="0px"
	 width="6.644px" height="24.333px" viewBox="0 0 6.644 24.333" enable-background="new 0 0 6.644 24.333" xml:space="preserve">
<polygon fill="none" stroke="#000000" stroke-miterlimit="10" points="28.946,-21.748 2.946,-7.998 -23.054,-21.748 2.946,-67.998 
	"/>
<g>
	<path d="M16.957-37.809c0.013-0.511,0.418-1.065,1.023-1.092c0.586-0.033,1.174,0.461,1.18,1.122c0.052,0.608-0.53,1.267-1.2,1.205
		c-0.32-0.012-0.621-0.2-0.787-0.444C17-37.262,16.946-37.548,16.957-37.809z M17.006-37.807c0.004,0.255,0.161,0.482,0.355,0.599
		c0.199,0.121,0.409,0.144,0.603,0.133c0.376-0.022,0.761-0.283,0.795-0.729c0.042-0.394-0.322-0.833-0.782-0.848
		C17.539-38.712,16.978-38.35,17.006-37.807z"/>
</g>
<g>
	<path d="M21.242-37.811c0.012-0.511,0.419-1.064,1.025-1.09c0.586-0.033,1.174,0.462,1.179,1.122
		c0.046,0.609-0.52,1.266-1.213,1.204c-0.298-0.012-0.614-0.202-0.774-0.445C21.286-37.264,21.232-37.55,21.242-37.811z
		 M21.292-37.809c0.004,0.255,0.161,0.482,0.355,0.6c0.204,0.122,0.397,0.144,0.614,0.135c0.353-0.024,0.756-0.283,0.785-0.729
		c0.042-0.395-0.32-0.833-0.781-0.848C21.825-38.714,21.263-38.352,21.292-37.809z"/>
</g>
<g>
	<path d="M-13.325-37.81c0.011-0.511,0.417-1.065,1.024-1.091c0.585-0.033,1.174,0.461,1.179,1.122
		c0.051,0.608-0.531,1.266-1.201,1.204c-0.321-0.013-0.622-0.201-0.787-0.445C-13.282-37.263-13.336-37.549-13.325-37.81z
		 M-13.275-37.808c0.003,0.255,0.16,0.482,0.355,0.6c0.199,0.121,0.409,0.144,0.603,0.134c0.376-0.023,0.762-0.284,0.796-0.729
		c0.042-0.394-0.322-0.833-0.782-0.848C-12.744-38.714-13.305-38.351-13.275-37.808z"/>
</g>
<g>
	<path fill="none" stroke="#000000" stroke-width="0.5" d="M25.117-28.56c-1.107,0.623-1.979-0.927-3.085-0.304
		c-1.108,0.623,0.765,3.953-0.343,4.576c-1.107,0.623-2.379-1.639-3.487-1.016c-1.106,0.622,0.151,2.856-0.955,3.478
		c-1.107,0.623-2.314-1.523-3.421-0.9c-1.108,0.624-0.801,1.171-1.909,1.795c-1.109,0.624-2.145-1.219-3.253-0.595
		s0.724,3.883-0.385,4.506c-1.111,0.625-2.476-1.803-3.587-1.178s-0.538,2.458-1.812,2.495c-1.241,0.035-0.927-1.491-2.034-2.052
		c-1.108-0.562-1.739,0.681-2.847,0.119c-1.107-0.562-0.334-2.086-1.441-2.648c-1.106-0.562-1.972,1.145-3.078,0.583
		c-1.107-0.562,0.24-3.217-0.867-3.779c-1.109-0.563-2.513,2.205-3.622,1.642c-1.109-0.562-0.285-2.184-1.394-2.747
		c-1.109-0.563-1.866,0.927-2.975,0.364c-1.111-0.563,0.273-3.29-0.838-3.854c-1.111-0.564-2.111,1.407-3.222,0.843"/>
</g>
<g>
	<path d="M-17.643-37.797c0.012-0.511,0.417-1.065,1.023-1.092c0.586-0.038,1.173,0.472,1.18,1.111
		c0.051,0.63-0.531,1.272-1.201,1.215c-0.32-0.011-0.623-0.2-0.787-0.444C-17.6-37.25-17.653-37.537-17.643-37.797z M-17.593-37.795
		c0.004,0.255,0.161,0.482,0.355,0.6c0.199,0.122,0.408,0.144,0.603,0.133c0.376-0.018,0.762-0.294,0.795-0.718
		c0.042-0.415-0.322-0.839-0.782-0.858C-17.062-38.701-17.623-38.338-17.593-37.795z"/>
</g>
<g>
	<path d="M-9.872-37.809c0.012-0.51,0.416-1.067,1.023-1.092c0.585-0.039,1.174,0.471,1.18,1.11
		c0.052,0.629-0.529,1.272-1.199,1.216c-0.322-0.013-0.621-0.201-0.787-0.444C-9.828-37.262-9.882-37.548-9.872-37.809z
		 M-9.822-37.807c0.004,0.255,0.161,0.482,0.355,0.599c0.198,0.122,0.41,0.143,0.603,0.134c0.377-0.019,0.762-0.294,0.795-0.719
		c0.042-0.415-0.321-0.838-0.782-0.857C-9.291-38.714-9.851-38.349-9.822-37.807z"/>
</g>
<g>
	<path d="M12.818-37.81c0.011-0.511,0.417-1.065,1.023-1.091c0.586-0.033,1.173,0.461,1.179,1.122
		c0.05,0.608-0.53,1.266-1.201,1.204c-0.321-0.013-0.621-0.201-0.786-0.445C12.86-37.263,12.807-37.549,12.818-37.81z
		 M12.868-37.808c0.003,0.255,0.16,0.482,0.354,0.6c0.198,0.122,0.409,0.144,0.603,0.134c0.376-0.023,0.761-0.284,0.796-0.729
		c0.042-0.393-0.321-0.832-0.782-0.847C13.399-38.714,12.837-38.351,12.868-37.808z"/>
</g>
<g>
	<path d="M-4.927-32.81c-0.677-0.41-1.063-1.167-1.063-2.035v-6.674c0-1.231,0.79-2.367,2.32-2.367c0.806,0,1.434,0.378,1.805,0.947
		l0.5,0.473c0.435,0.442,0.677,1.073,0.677,1.751v6.642c0,1.184-0.725,2.335-2.175,2.335c-0.677,0-1.208-0.236-1.595-0.615
		L-4.927-32.81z M-1.527-34.861v-6.643c0-1.23-0.79-2.304-2.143-2.304c-1.482,0-2.24,1.104-2.24,2.288v6.674
		c0,1.247,0.838,2.288,2.24,2.288C-2.236-32.558-1.527-33.693-1.527-34.861z M-3.106-42.939l-1.708,9.041
		c-0.161-0.269-0.242-0.6-0.242-0.947v-6.674c0-0.852,0.435-1.546,1.386-1.546C-3.461-43.065-3.268-43.018-3.106-42.939z
		 M-2.349-34.861c0,0.836-0.435,1.546-1.321,1.546c-0.242,0-0.159,0.083-0.336,0.004l1.595-8.796
		C-2.235-41.823-2.349-34.861-2.349-34.861z M-4.218-37.496l0.87-4.67c-0.596,0.189-0.87,0.773-0.87,1.436V-37.496z M-2.43-34.861
		v-3.219l-0.886,4.639C-2.72-33.615-2.43-34.198-2.43-34.861z"/>
	<path d="M3.09-43.791v0.095l0.757,0.741v11.107H2.961l-0.757-0.741H2.107v-9.562H2.011l-0.757-0.741H1.157v-0.899H3.09z
		 M1.237-43.712v0.742h0.951v10.303H3.01v-11.044H1.237z"/>
	<path d="M7.372-36.912c-0.806-0.521-1.112-1.594-1.112-2.572v-1.546c0-1.356,0.661-2.792,2.288-2.792
		c0.838,0,1.402,0.363,1.756,0.931l0.467,0.441c0.532,0.521,0.757,1.341,0.757,2.225v6.153c0,1.325-0.838,2.319-2.24,2.319
		c-0.596,0-1.096-0.221-1.466-0.583l-0.467-0.458c-0.693-0.411-1.08-1.199-1.08-2.083v-0.615h0.983v0.095l0.757,0.742v0.568
		c0,0.221,0.016,0.426,0.064,0.615c0.129,0.032,0.258,0.047,0.403,0.047c0.886,0,1.321-0.631,1.321-1.436v-1.104
		c-0.177,0.063-0.354,0.079-0.548,0.079c-0.58,0-1.031-0.205-1.354-0.521L7.372-36.912z M10.691-41.014
		c0-1.436-0.596-2.729-2.143-2.729c-1.579,0-2.208,1.388-2.208,2.713v1.546c0,1.294,0.564,2.777,2.111,2.777
		c0.645,0,1.192-0.395,1.434-0.947v2.793c0,0.852-0.467,1.515-1.402,1.515c-0.854,0-1.305-0.679-1.305-1.531v-0.536H6.356v0.536
		c0,1.231,0.806,2.304,2.127,2.304c1.386,0,2.208-0.979,2.208-2.288V-41.014z M9.853-39.5c0,0.836-0.371,2.035-1.305,2.035
		c-1.144,0-1.37-1.23-1.37-2.02v-1.546c0-0.946,0.387-1.956,1.37-1.956c1.031,0,1.305,1.025,1.305,1.972V-39.5z M9.772-41.014
		c0-0.395-0.048-0.789-0.177-1.121c-0.081-0.016-0.161-0.031-0.242-0.031c-0.967,0-1.337,0.994-1.337,1.925v1.546
		c0,0.331,0.048,0.741,0.161,1.104c0.113,0.032,0.226,0.047,0.371,0.047c0.886,0,1.225-1.151,1.225-1.956V-41.014z"/>
</g>
<path opacity="0.5" fill="none" stroke="#000000" stroke-miterlimit="10" d="M2.946-27.498"/>
<path opacity="0.5" fill="none" stroke="#000000" stroke-miterlimit="10" d="M2.946-67.498"/>
<path opacity="0.5" fill="none" stroke="#000000" stroke-miterlimit="10" d="M2.946-27.498"/>
<path opacity="0.5" fill="none" stroke="#000000" stroke-miterlimit="10" d="M-23.054-21.748"/>
<path opacity="0.5" fill="none" stroke="#000000" stroke-miterlimit="10" d="M2.946-27.498"/>
<path opacity="0.5" fill="none" stroke="#000000" stroke-miterlimit="10" d="M28.946-21.748"/>
<path fill="none" stroke="#000000" stroke-miterlimit="10" d="M2.946-24.416"/>
<path fill="none" stroke="#000000" stroke-miterlimit="10" d="M21.946-34.748"/>
<path fill="none" stroke="#000000" stroke-miterlimit="10" d="M-15.64-34.748"/>
<path fill="none" stroke="#000000" stroke-miterlimit="10" d="M2.946-24.416"/>
<polyline fill="none" stroke="#000000" stroke-width="0.5" stroke-miterlimit="10" points="21.471,-35.045 2.946,-25.248 
	-15.579,-35.045 "/>
<line fill="none" stroke="#000000" stroke-miterlimit="10" x1="2.946" y1="-8.498" x2="2.946" y2="-25.498"/>
<line fill="none" stroke="#000000" stroke-miterlimit="10" x1="2.946" y1="-47.498" x2="2.946" y2="-67.498"/>
<polyline fill="none" stroke="#000000" stroke-width="0.5" stroke-miterlimit="10" points="11.938,-52.003 2.946,-47.248 
	-6.316,-52.146 "/>
<path stroke="#000000" stroke-width="0.5" enable-background="new    " d="M6.839-72.647c0-0.622,0,1.127,0.991,1.127
	c0.548,0-0.991,0-0.991,1.127c0,0.622,0-1.127-0.991-1.127C5.299-71.52,6.839-71.52,6.839-72.647z"/>
<path stroke="#000000" stroke-width="0.5" enable-background="new    " d="M-3.483-68.538c0-0.933,0,1.69,1.487,1.69
	c0.822,0-1.487,0-1.487,1.691c0,0.933,0-1.691-1.487-1.691C-5.793-66.848-3.483-66.848-3.483-68.538z"/>
<g>
	<path fill="none" stroke="#000000" stroke-width="0.75" stroke-linecap="round" d="M3.289,3.494c0.03,1.22-0.655,1.237-0.625,2.457
		c0.03,1.222,0.714,1.205,0.744,2.427c0.03,1.223-0.655,1.24-0.625,2.463s0.714,1.207,0.744,2.43c0.03,1.224-0.655,1.24-0.625,2.464
		c0.03,1.226,0.714,1.208,0.744,2.434s-0.655,1.242-0.625,2.468"/>
</g>
<polyline fill="none" stroke="#000000" stroke-width="0.5" stroke-linecap="round" stroke-linejoin="round" stroke-miterlimit="10" points="
	3.181,5.377 0.696,6.629 5.321,6.669 3.462,3.609 "/>
<path fill="none" stroke="#000000" stroke-width="0.5" stroke-linecap="round" stroke-linejoin="round" stroke-miterlimit="10" d="
	M3.181,12.169"/>
<circle cx="3.181" cy="2.596" r="1"/>
<polyline fill="none" stroke="#000000" stroke-width="0.5" stroke-linecap="round" stroke-linejoin="round" stroke-miterlimit="10" points="
	3.181,7.377 0.696,8.629 5.321,8.669 3.181,5.377 "/>
<polyline fill="none" stroke="#000000" stroke-width="0.5" stroke-linecap="round" stroke-linejoin="round" stroke-miterlimit="10" points="
	3.181,9.377 0.696,10.629 5.321,10.669 3.181,7.377 "/>
<polyline fill="none" stroke="#000000" stroke-width="0.5" stroke-linecap="round" stroke-linejoin="round" stroke-miterlimit="10" points="
	3.181,11.377 0.696,12.629 5.321,12.669 3.181,9.377 "/>
<polyline fill="none" stroke="#000000" stroke-width="0.5" stroke-linecap="round" stroke-linejoin="round" stroke-miterlimit="10" points="
	3.181,13.377 0.696,14.629 5.321,14.669 3.181,11.377 "/>
<polygon fill="#FFFFFF" stroke="#000000" stroke-miterlimit="10" points="4.229,21.064 3.363,22.564 2.497,21.064 3.363,21.408 "/>
<polyline fill="none" stroke="#000000" stroke-width="0.5" stroke-linecap="round" stroke-linejoin="round" stroke-miterlimit="10" points="
	3.009,15.464 0.696,16.629 5.321,16.669 3.181,13.377 "/>
<g>
	<g>
		<polygon stroke="#000000" stroke-width="0.4161" points="-0.752,-3.136 0.752,-3.991 0.742,-2.258 		"/>
		<polygon stroke="#000000" stroke-width="0.4161" points="1.147,-3.995 2.644,-3.119 1.139,-2.263 		"/>
	</g>
	<line fill="none" stroke="#000000" stroke-width="0.39" x1="-8.857" y1="-3.129" x2="14.912" y2="-3.098"/>
	<g>
		<polygon stroke="#000000" stroke-width="0.4161" points="1.248,-3.118 2.752,-3.974 2.742,-2.241 		"/>
		<polygon stroke="#000000" stroke-width="0.4161" points="3.147,-3.978 4.644,-3.102 3.139,-2.245 		"/>
	</g>
	<g>
		<polygon stroke="#000000" stroke-width="0.4161" points="3.248,-3.101 4.752,-3.956 4.742,-2.224 		"/>
		<polygon stroke="#000000" stroke-width="0.4161" points="5.147,-3.96 6.644,-3.084 5.139,-2.228 		"/>
	</g>
</g>
<g>
	<path d="M-21.643-37.828c0.012-0.511,0.417-1.065,1.023-1.092c0.586-0.038,1.173,0.472,1.18,1.111
		c0.051,0.63-0.531,1.272-1.201,1.215c-0.32-0.011-0.623-0.2-0.787-0.444C-21.6-37.282-21.653-37.568-21.643-37.828z
		 M-21.593-37.826c0.004,0.255,0.161,0.482,0.355,0.6c0.199,0.122,0.408,0.144,0.603,0.133c0.376-0.018,0.762-0.294,0.795-0.718
		c0.042-0.415-0.322-0.839-0.782-0.858C-21.062-38.732-21.623-38.369-21.593-37.826z"/>
</g>
<g>
	<path d="M25.357-37.828c0.012-0.511,0.417-1.065,1.023-1.092c0.586-0.038,1.173,0.472,1.18,1.111
		c0.051,0.63-0.531,1.272-1.201,1.215c-0.32-0.011-0.623-0.2-0.787-0.444C25.4-37.282,25.347-37.568,25.357-37.828z M25.407-37.826
		c0.004,0.255,0.161,0.482,0.355,0.6c0.199,0.122,0.408,0.144,0.603,0.133c0.376-0.018,0.762-0.294,0.795-0.718
		c0.042-0.415-0.322-0.839-0.782-0.858C25.938-38.732,25.377-38.369,25.407-37.826z"/>
</g>
</svg>
