<?xml version="1.0" encoding="utf-8"?>
<!-- Generator: Adobe Illustrator 15.0.0, SVG Export Plug-In . SVG Version: 6.00 Build 0)  -->
<!DOCTYPE svg PUBLIC "-//W3C//DTD SVG 1.1//EN" "http://www.w3.org/Graphics/SVG/1.1/DTD/svg11.dtd">
<svg version="1.1" id="Layer_1" xmlns="http://www.w3.org/2000/svg" xmlns:xlink="http://www.w3.org/1999/xlink" x="0px" y="0px"
	 width="57px" height="67.667px" viewBox="0 0 57 67.667" enable-background="new 0 0 57 67.667" xml:space="preserve">
<polygon fill="none" stroke="#000000" stroke-miterlimit="10" points="54.5,51.75 28.5,65.5 2.5,51.75 28.5,5.5 "/>
<g>
	<path d="M42.51,35.689c0.014-0.511,0.418-1.065,1.023-1.092c0.586-0.033,1.174,0.461,1.18,1.122
		c0.053,0.608-0.529,1.267-1.199,1.205c-0.32-0.012-0.621-0.2-0.787-0.444C42.555,36.236,42.5,35.95,42.51,35.689z M42.561,35.691
		c0.004,0.255,0.16,0.482,0.354,0.599c0.198,0.121,0.409,0.144,0.603,0.133c0.377-0.022,0.762-0.283,0.795-0.729
		c0.043-0.394-0.321-0.833-0.781-0.848C43.092,34.786,42.531,35.148,42.561,35.691z"/>
</g>
<g>
	<path d="M46.796,35.688c0.013-0.511,0.419-1.064,1.024-1.09c0.587-0.033,1.175,0.462,1.18,1.122
		c0.046,0.609-0.52,1.266-1.213,1.204c-0.299-0.012-0.614-0.202-0.773-0.445C46.84,36.234,46.786,35.948,46.796,35.688z
		 M46.846,35.689c0.004,0.255,0.161,0.482,0.355,0.6c0.203,0.122,0.396,0.144,0.613,0.135c0.354-0.024,0.756-0.283,0.785-0.729
		c0.043-0.395-0.32-0.833-0.781-0.848C47.379,34.784,46.816,35.146,46.846,35.689z"/>
</g>
<g>
	<path d="M12.229,35.688c0.011-0.511,0.417-1.065,1.024-1.091c0.585-0.033,1.174,0.461,1.179,1.122
		c0.051,0.608-0.531,1.266-1.201,1.204c-0.321-0.013-0.622-0.201-0.787-0.445C12.271,36.235,12.218,35.949,12.229,35.688z
		 M12.278,35.69c0.003,0.255,0.16,0.482,0.355,0.6c0.199,0.121,0.409,0.144,0.603,0.134c0.376-0.023,0.762-0.284,0.796-0.729
		c0.042-0.394-0.322-0.833-0.782-0.848C12.81,34.784,12.249,35.147,12.278,35.69z"/>
</g>
<g>
	<path fill="none" stroke="#000000" stroke-width="0.5" d="M50.67,44.938c-1.107,0.623-1.979-0.927-3.085-0.304
		c-1.108,0.623,0.765,3.953-0.343,4.576s-2.379-1.639-3.487-1.016c-1.106,0.622,0.151,2.856-0.955,3.478
		c-1.106,0.623-2.313-1.523-3.421-0.9c-1.107,0.624-0.801,1.171-1.908,1.795c-1.109,0.625-2.146-1.219-3.254-0.595
		c-1.107,0.624,0.725,3.883-0.385,4.506c-1.111,0.625-2.477-1.804-3.587-1.179c-1.111,0.625-0.538,2.458-1.812,2.495
		c-1.241,0.035-0.927-1.49-2.034-2.052c-1.108-0.562-1.739,0.681-2.847,0.118c-1.107-0.562-0.334-2.086-1.441-2.647
		c-1.106-0.562-1.972,1.146-3.078,0.583c-1.107-0.562,0.24-3.217-0.867-3.779c-1.109-0.563-2.513,2.205-3.622,1.642
		c-1.109-0.562-0.285-2.184-1.394-2.747s-1.866,0.927-2.975,0.364c-1.111-0.563,0.273-3.29-0.838-3.854
		c-1.111-0.564-2.111,1.407-3.222,0.843"/>
</g>
<g>
	<path d="M7.911,35.701c0.012-0.511,0.417-1.065,1.023-1.092c0.586-0.038,1.173,0.472,1.18,1.111
		c0.051,0.63-0.531,1.272-1.201,1.215c-0.32-0.011-0.623-0.2-0.787-0.444C7.954,36.248,7.9,35.961,7.911,35.701z M7.96,35.703
		c0.004,0.255,0.161,0.482,0.355,0.6c0.199,0.122,0.408,0.145,0.603,0.133c0.376-0.018,0.762-0.294,0.795-0.718
		c0.042-0.415-0.322-0.839-0.782-0.858C8.492,34.797,7.931,35.16,7.96,35.703z"/>
</g>
<g>
	<path d="M15.682,35.689c0.012-0.51,0.416-1.067,1.023-1.092c0.585-0.039,1.174,0.471,1.18,1.11
		c0.052,0.629-0.529,1.272-1.199,1.216c-0.322-0.013-0.621-0.201-0.787-0.444C15.726,36.236,15.672,35.95,15.682,35.689z
		 M15.732,35.691c0.004,0.255,0.161,0.482,0.355,0.599c0.198,0.122,0.41,0.143,0.603,0.134c0.377-0.019,0.762-0.294,0.795-0.719
		c0.042-0.415-0.321-0.838-0.782-0.857C16.263,34.784,15.703,35.149,15.732,35.691z"/>
</g>
<g>
	<path d="M38.372,35.688c0.011-0.511,0.417-1.065,1.022-1.091c0.586-0.033,1.174,0.461,1.18,1.122
		c0.05,0.608-0.53,1.266-1.201,1.204c-0.321-0.013-0.621-0.201-0.786-0.445C38.414,36.235,38.361,35.949,38.372,35.688z
		 M38.421,35.69c0.003,0.255,0.16,0.482,0.354,0.6c0.197,0.122,0.408,0.144,0.603,0.134c0.376-0.023,0.761-0.284,0.796-0.729
		c0.042-0.393-0.32-0.832-0.781-0.847C38.953,34.784,38.391,35.147,38.421,35.69z"/>
</g>
<g>
	<path d="M20.626,40.688c-0.677-0.41-1.063-1.167-1.063-2.035v-6.674c0-1.231,0.79-2.367,2.32-2.367
		c0.806,0,1.434,0.378,1.805,0.947l0.5,0.473c0.435,0.442,0.677,1.073,0.677,1.751v6.642c0,1.184-0.725,2.335-2.175,2.335
		c-0.677,0-1.208-0.236-1.595-0.615L20.626,40.688z M24.026,38.637v-6.643c0-1.23-0.79-2.304-2.143-2.304
		c-1.482,0-2.24,1.104-2.24,2.288v6.674c0,1.247,0.838,2.288,2.24,2.288C23.317,40.94,24.026,39.805,24.026,38.637z M22.447,30.559
		L20.739,39.6c-0.161-0.269-0.242-0.6-0.242-0.947v-6.674c0-0.852,0.435-1.546,1.386-1.546
		C22.093,30.433,22.286,30.48,22.447,30.559z M23.205,38.637c0,0.836-0.435,1.546-1.321,1.546c-0.242,0-0.159,0.083-0.336,0.004
		l1.595-8.796C23.319,31.675,23.205,38.637,23.205,38.637z M21.335,36.002l0.87-4.67c-0.596,0.189-0.87,0.773-0.87,1.436V36.002z
		 M23.124,38.637v-3.219l-0.886,4.639C22.834,39.883,23.124,39.3,23.124,38.637z"/>
	<path d="M28.644,29.707v0.095l0.756,0.741V41.65h-0.885l-0.757-0.741h-0.097v-9.562h-0.097l-0.757-0.741H26.71v-0.899H28.644z
		 M26.791,29.786v0.742h0.951V40.83h0.822V29.786H26.791z"/>
	<path d="M32.925,36.586c-0.806-0.521-1.112-1.594-1.112-2.572v-1.546c0-1.356,0.662-2.792,2.289-2.792
		c0.838,0,1.401,0.363,1.756,0.931l0.467,0.441c0.531,0.521,0.757,1.341,0.757,2.225v6.153c0,1.325-0.838,2.319-2.24,2.319
		c-0.596,0-1.096-0.221-1.466-0.583l-0.467-0.458c-0.693-0.411-1.08-1.199-1.08-2.083v-0.615h0.982v0.095l0.758,0.742v0.568
		c0,0.221,0.016,0.426,0.063,0.615c0.13,0.032,0.259,0.047,0.403,0.047c0.886,0,1.32-0.631,1.32-1.436v-1.104
		c-0.176,0.063-0.354,0.079-0.547,0.079c-0.58,0-1.031-0.205-1.354-0.521L32.925,36.586z M36.245,32.484
		c0-1.436-0.597-2.729-2.144-2.729c-1.578,0-2.207,1.388-2.207,2.713v1.546c0,1.294,0.563,2.777,2.11,2.777
		c0.646,0,1.192-0.395,1.435-0.947v2.793c0,0.852-0.467,1.515-1.402,1.515c-0.854,0-1.305-0.679-1.305-1.531v-0.536H31.91v0.536
		c0,1.231,0.806,2.304,2.127,2.304c1.386,0,2.208-0.979,2.208-2.288V32.484z M35.407,33.999c0,0.836-0.371,2.035-1.306,2.035
		c-1.144,0-1.369-1.23-1.369-2.02v-1.546c0-0.946,0.387-1.956,1.369-1.956c1.031,0,1.306,1.025,1.306,1.972V33.999z M35.326,32.484
		c0-0.395-0.049-0.789-0.178-1.121c-0.08-0.016-0.16-0.031-0.241-0.031c-0.968,0-1.337,0.994-1.337,1.925v1.546
		c0,0.331,0.048,0.741,0.16,1.104c0.113,0.032,0.227,0.047,0.371,0.047c0.887,0,1.226-1.151,1.226-1.956L35.326,32.484
		L35.326,32.484z"/>
</g>
<path opacity="0.5" fill="none" stroke="#000000" stroke-miterlimit="10" enable-background="new    " d="M28.5,46"/>
<path opacity="0.5" fill="none" stroke="#000000" stroke-miterlimit="10" enable-background="new    " d="M28.5,6"/>
<path opacity="0.5" fill="none" stroke="#000000" stroke-miterlimit="10" enable-background="new    " d="M28.5,46"/>
<path opacity="0.5" fill="none" stroke="#000000" stroke-miterlimit="10" enable-background="new    " d="M2.5,51.75"/>
<path opacity="0.5" fill="none" stroke="#000000" stroke-miterlimit="10" enable-background="new    " d="M28.5,46"/>
<path opacity="0.5" fill="none" stroke="#000000" stroke-miterlimit="10" enable-background="new    " d="M54.5,51.75"/>
<path fill="none" stroke="#000000" stroke-miterlimit="10" d="M28.5,49.082"/>
<path fill="none" stroke="#000000" stroke-miterlimit="10" d="M47.5,38.75"/>
<path fill="none" stroke="#000000" stroke-miterlimit="10" d="M9.914,38.75"/>
<path fill="none" stroke="#000000" stroke-miterlimit="10" d="M28.5,49.082"/>
<polyline fill="none" stroke="#000000" stroke-width="0.5" stroke-miterlimit="10" points="47.025,38.453 28.5,48.25 9.975,38.453 
	"/>
<line fill="none" stroke="#000000" stroke-miterlimit="10" x1="28.5" y1="65" x2="28.5" y2="48"/>
<line fill="none" stroke="#000000" stroke-miterlimit="10" x1="28.5" y1="26" x2="28.5" y2="6"/>
<polyline fill="none" stroke="#000000" stroke-width="0.5" stroke-miterlimit="10" points="37.492,21.495 28.5,26.25 19.237,21.352 
	"/>
<path stroke="#000000" stroke-width="0.5" d="M32.393,0.851c0-0.622,0,1.127,0.991,1.127c0.548,0-0.991,0-0.991,1.127
	c0,0.622,0-1.127-0.99-1.127C30.854,1.978,32.393,1.978,32.393,0.851z"/>
<path stroke="#000000" stroke-width="0.5" d="M22.071,4.96c0-0.933,0,1.69,1.487,1.69c0.822,0-1.487,0-1.487,1.691
	c0,0.933,0-1.691-1.487-1.691C19.761,6.65,22.071,6.65,22.071,4.96z"/>
<g>
	<path fill="none" stroke="#000000" stroke-width="0.75" stroke-linecap="round" d="M28.842,76.992
		c0.03,1.22-0.655,1.236-0.625,2.457c0.03,1.222,0.714,1.205,0.744,2.427c0.03,1.224-0.655,1.24-0.625,2.463
		c0.03,1.224,0.714,1.207,0.744,2.431c0.029,1.224-0.655,1.239-0.625,2.463c0.03,1.227,0.714,1.209,0.744,2.435
		c0.029,1.226-0.655,1.242-0.625,2.468"/>
</g>
<polyline fill="none" stroke="#000000" stroke-width="0.5" stroke-linecap="round" stroke-linejoin="round" stroke-miterlimit="10" points="
	28.734,78.875 26.25,80.127 30.875,80.167 29.016,77.107 "/>
<path fill="none" stroke="#000000" stroke-width="0.5" stroke-linecap="round" stroke-linejoin="round" stroke-miterlimit="10" d="
	M28.734,85.667"/>
<circle cx="28.734" cy="76.094" r="1"/>
<polyline fill="none" stroke="#000000" stroke-width="0.5" stroke-linecap="round" stroke-linejoin="round" stroke-miterlimit="10" points="
	28.734,80.875 26.25,82.127 30.875,82.167 28.734,78.875 "/>
<polyline fill="none" stroke="#000000" stroke-width="0.5" stroke-linecap="round" stroke-linejoin="round" stroke-miterlimit="10" points="
	28.734,82.875 26.25,84.127 30.875,84.167 28.734,80.875 "/>
<polyline fill="none" stroke="#000000" stroke-width="0.5" stroke-linecap="round" stroke-linejoin="round" stroke-miterlimit="10" points="
	28.734,84.875 26.25,86.127 30.875,86.167 28.734,82.875 "/>
<polyline fill="none" stroke="#000000" stroke-width="0.5" stroke-linecap="round" stroke-linejoin="round" stroke-miterlimit="10" points="
	28.734,86.875 26.25,88.127 30.875,88.167 28.734,84.875 "/>
<polygon fill="#FFFFFF" stroke="#000000" stroke-miterlimit="10" points="29.783,94.562 28.917,96.062 28.05,94.562 28.917,94.906 
	"/>
<polyline fill="none" stroke="#000000" stroke-width="0.5" stroke-linecap="round" stroke-linejoin="round" stroke-miterlimit="10" points="
	28.562,88.962 26.25,90.127 30.875,90.167 28.734,86.875 "/>
<g>
	<g>
		<polygon stroke="#000000" stroke-width="0.4161" points="24.802,70.361 26.306,69.507 26.296,71.24 		"/>
		<polygon stroke="#000000" stroke-width="0.4161" points="26.701,69.503 28.197,70.379 26.693,71.234 		"/>
	</g>
	<line fill="none" stroke="#000000" stroke-width="0.39" x1="16.696" y1="70.369" x2="40.466" y2="70.4"/>
	<g>
		<polygon stroke="#000000" stroke-width="0.4161" points="26.802,70.38 28.306,69.523 28.296,71.257 		"/>
		<polygon stroke="#000000" stroke-width="0.4161" points="28.701,69.521 30.197,70.396 28.692,71.253 		"/>
	</g>
	<g>
		<polygon stroke="#000000" stroke-width="0.4161" points="28.802,70.396 30.307,69.542 30.296,71.273 		"/>
		<polygon stroke="#000000" stroke-width="0.4161" points="30.701,69.538 32.197,70.414 30.691,71.271 		"/>
	</g>
</g>
<g>
	<path d="M3.911,35.67c0.012-0.511,0.417-1.065,1.023-1.092c0.586-0.038,1.173,0.472,1.18,1.111c0.051,0.63-0.531,1.272-1.201,1.215
		c-0.32-0.011-0.623-0.2-0.787-0.444C3.954,36.216,3.9,35.93,3.911,35.67z M3.96,35.672c0.004,0.255,0.161,0.482,0.355,0.6
		c0.199,0.122,0.408,0.144,0.603,0.133c0.376-0.018,0.762-0.294,0.795-0.718c0.042-0.415-0.322-0.839-0.782-0.858
		C4.492,34.766,3.931,35.129,3.96,35.672z"/>
</g>
<g>
	<path d="M50.911,35.67c0.012-0.511,0.417-1.065,1.022-1.092c0.586-0.038,1.174,0.472,1.18,1.111c0.052,0.63-0.53,1.272-1.2,1.215
		c-0.32-0.011-0.623-0.2-0.787-0.444C50.954,36.216,50.9,35.93,50.911,35.67z M50.96,35.672c0.004,0.255,0.161,0.482,0.354,0.6
		c0.199,0.122,0.408,0.144,0.604,0.133c0.376-0.018,0.762-0.294,0.795-0.718c0.042-0.415-0.322-0.839-0.781-0.858
		C51.492,34.766,50.932,35.129,50.96,35.672z"/>
</g>
</svg>
