<?xml version="1.0" encoding="utf-8"?>
<!-- Generator: Adobe Illustrator 15.0.0, SVG Export Plug-In . SVG Version: 6.00 Build 0)  -->
<!DOCTYPE svg PUBLIC "-//W3C//DTD SVG 1.1//EN" "http://www.w3.org/Graphics/SVG/1.1/DTD/svg11.dtd">
<svg version="1.1" id="Layer_1" xmlns="http://www.w3.org/2000/svg" xmlns:xlink="http://www.w3.org/1999/xlink" x="0px" y="0px"
	 width="57px" height="67.667px" viewBox="0 0 57 67.667" enable-background="new 0 0 57 67.667" xml:space="preserve">
<polygon fill="none" stroke="#000000" stroke-miterlimit="10" points="54.5,51.75 28.5,65.5 2.5,51.75 28.5,5.5 "/>
<g>
	<path d="M42.51,35.689c0.014-0.512,0.418-1.064,1.023-1.092c0.586-0.033,1.174,0.461,1.18,1.121
		c0.053,0.609-0.529,1.268-1.199,1.205c-0.32-0.012-0.621-0.199-0.787-0.443C42.555,36.236,42.5,35.951,42.51,35.689z
		 M42.561,35.691c0.004,0.255,0.16,0.482,0.354,0.6c0.198,0.121,0.409,0.144,0.603,0.133c0.377-0.022,0.762-0.283,0.795-0.729
		c0.043-0.394-0.32-0.833-0.78-0.848C43.092,34.787,42.531,35.148,42.561,35.691z"/>
</g>
<g>
	<path d="M46.796,35.688c0.013-0.511,0.419-1.063,1.024-1.09c0.587-0.033,1.175,0.462,1.18,1.122
		c0.046,0.609-0.52,1.266-1.213,1.203c-0.299-0.012-0.614-0.201-0.773-0.444C46.84,36.234,46.786,35.949,46.796,35.688z
		 M46.846,35.689c0.004,0.255,0.161,0.482,0.355,0.6c0.203,0.123,0.396,0.145,0.613,0.135c0.354-0.023,0.756-0.282,0.785-0.729
		c0.043-0.395-0.32-0.833-0.781-0.848C47.379,34.785,46.816,35.146,46.846,35.689z"/>
</g>
<g>
	<path d="M12.229,35.688c0.011-0.511,0.417-1.065,1.024-1.091c0.585-0.033,1.174,0.461,1.179,1.121
		c0.051,0.609-0.531,1.267-1.201,1.205c-0.321-0.014-0.622-0.201-0.787-0.445C12.271,36.235,12.218,35.949,12.229,35.688z
		 M12.278,35.69c0.003,0.255,0.16,0.481,0.355,0.601c0.199,0.121,0.409,0.144,0.603,0.133c0.376-0.022,0.762-0.283,0.796-0.729
		c0.042-0.395-0.322-0.833-0.782-0.848C12.81,34.785,12.249,35.147,12.278,35.69z"/>
</g>
<g>
	<path fill="none" stroke="#000000" stroke-width="0.5" d="M50.67,44.938c-1.107,0.623-1.979-0.927-3.085-0.304
		c-1.108,0.623,0.765,3.953-0.343,4.576c-1.108,0.623-2.379-1.64-3.487-1.017c-1.106,0.622,0.151,2.856-0.955,3.478
		c-1.106,0.623-2.313-1.522-3.421-0.899c-1.107,0.624-0.801,1.171-1.908,1.795c-1.109,0.625-2.146-1.219-3.254-0.595
		c-1.107,0.624,0.725,3.883-0.385,4.506c-1.111,0.625-2.477-1.805-3.587-1.18c-1.111,0.625-0.538,2.459-1.812,2.496
		c-1.241,0.035-0.927-1.49-2.034-2.053c-1.108-0.562-1.739,0.682-2.847,0.118c-1.107-0.562-0.334-2.086-1.441-2.647
		c-1.106-0.562-1.972,1.146-3.078,0.584c-1.107-0.562,0.24-3.217-0.867-3.779c-1.109-0.562-2.513,2.205-3.622,1.643
		s-0.285-2.185-1.394-2.748c-1.109-0.562-1.866,0.928-2.975,0.364c-1.111-0.563,0.273-3.29-0.838-3.854
		c-1.111-0.563-2.111,1.408-3.222,0.844"/>
</g>
<g>
	<path d="M7.911,35.701c0.012-0.511,0.417-1.064,1.023-1.092c0.586-0.038,1.173,0.473,1.18,1.111
		c0.051,0.63-0.531,1.271-1.201,1.215c-0.32-0.012-0.623-0.2-0.787-0.443C7.954,36.248,7.9,35.96,7.911,35.701z M7.96,35.703
		c0.004,0.256,0.161,0.482,0.355,0.6c0.199,0.123,0.408,0.146,0.603,0.134c0.376-0.019,0.762-0.294,0.795-0.718
		c0.042-0.416-0.322-0.84-0.782-0.858C8.492,34.796,7.931,35.16,7.96,35.703z"/>
</g>
<g>
	<path d="M15.682,35.689c0.012-0.51,0.416-1.066,1.023-1.092c0.585-0.039,1.174,0.471,1.18,1.109
		c0.052,0.629-0.529,1.272-1.199,1.217c-0.322-0.014-0.621-0.201-0.787-0.444C15.726,36.236,15.672,35.951,15.682,35.689z
		 M15.732,35.691c0.004,0.255,0.161,0.482,0.355,0.6c0.198,0.121,0.41,0.143,0.603,0.133c0.377-0.018,0.762-0.293,0.795-0.719
		c0.042-0.414-0.321-0.838-0.782-0.856C16.263,34.785,15.703,35.149,15.732,35.691z"/>
</g>
<g>
	<path d="M38.372,35.688c0.011-0.511,0.417-1.065,1.022-1.091c0.586-0.033,1.174,0.461,1.18,1.121
		c0.05,0.609-0.53,1.267-1.201,1.205c-0.321-0.014-0.621-0.201-0.786-0.445C38.414,36.235,38.361,35.949,38.372,35.688z
		 M38.421,35.69c0.003,0.255,0.16,0.481,0.354,0.601c0.197,0.121,0.408,0.144,0.603,0.133c0.376-0.022,0.761-0.283,0.796-0.729
		c0.042-0.393-0.32-0.832-0.781-0.847C38.953,34.785,38.391,35.147,38.421,35.69z"/>
</g>
<g>
	<path d="M20.626,40.688c-0.677-0.41-1.063-1.167-1.063-2.035v-6.674c0-1.231,0.79-2.367,2.32-2.367
		c0.806,0,1.434,0.378,1.805,0.947l0.5,0.473c0.435,0.442,0.677,1.073,0.677,1.751v6.642c0,1.184-0.725,2.334-2.175,2.334
		c-0.677,0-1.208-0.235-1.595-0.614L20.626,40.688z M24.026,38.637v-6.643c0-1.23-0.79-2.304-2.143-2.304
		c-1.482,0-2.24,1.104-2.24,2.288v6.674c0,1.247,0.838,2.288,2.24,2.288C23.317,40.94,24.026,39.805,24.026,38.637z M22.447,30.559
		L20.739,39.6c-0.161-0.269-0.242-0.601-0.242-0.947v-6.674c0-0.852,0.435-1.546,1.386-1.546
		C22.093,30.433,22.286,30.48,22.447,30.559z M23.205,38.637c0,0.836-0.435,1.546-1.321,1.546c-0.242,0-0.159,0.083-0.336,0.004
		l1.595-8.796C23.319,31.675,23.205,38.637,23.205,38.637z M21.335,36.001l0.87-4.669c-0.596,0.189-0.87,0.773-0.87,1.436V36.001z
		 M23.124,38.637v-3.22l-0.886,4.64C22.834,39.882,23.124,39.3,23.124,38.637z"/>
	<path d="M28.644,29.707v0.095l0.756,0.741V41.65h-0.885l-0.757-0.74h-0.097v-9.562h-0.097l-0.757-0.741H26.71v-0.899H28.644z
		 M26.791,29.786v0.742h0.951V40.83h0.822V29.786H26.791z"/>
	<path d="M32.925,36.585c-0.806-0.521-1.112-1.594-1.112-2.571v-1.546c0-1.356,0.662-2.792,2.289-2.792
		c0.838,0,1.401,0.363,1.756,0.931l0.468,0.441c0.53,0.521,0.757,1.341,0.757,2.225v6.152c0,1.326-0.838,2.32-2.24,2.32
		c-0.596,0-1.096-0.222-1.466-0.584l-0.467-0.457c-0.693-0.412-1.08-1.199-1.08-2.084v-0.615h0.981v0.096l0.758,0.742v0.568
		c0,0.221,0.017,0.426,0.063,0.614c0.13,0.032,0.259,0.048,0.403,0.048c0.886,0,1.32-0.632,1.32-1.437v-1.104
		c-0.176,0.063-0.354,0.079-0.547,0.079c-0.58,0-1.031-0.204-1.354-0.521L32.925,36.585z M36.245,32.484
		c0-1.436-0.597-2.729-2.144-2.729c-1.578,0-2.207,1.388-2.207,2.713v1.546c0,1.294,0.562,2.776,2.109,2.776
		c0.646,0,1.191-0.395,1.436-0.947v2.794c0,0.853-0.467,1.515-1.402,1.515c-0.854,0-1.305-0.679-1.305-1.531v-0.535H31.91v0.535
		c0,1.231,0.806,2.305,2.127,2.305c1.386,0,2.208-0.979,2.208-2.288V32.484z M35.407,33.999c0,0.836-0.371,2.036-1.306,2.036
		c-1.145,0-1.369-1.23-1.369-2.021v-1.546c0-0.946,0.387-1.956,1.369-1.956c1.03,0,1.306,1.025,1.306,1.972V33.999z M35.326,32.484
		c0-0.395-0.049-0.789-0.178-1.121c-0.08-0.016-0.16-0.031-0.241-0.031c-0.968,0-1.337,0.994-1.337,1.925v1.545
		c0,0.332,0.048,0.742,0.16,1.105c0.112,0.031,0.227,0.047,0.371,0.047c0.887,0,1.226-1.152,1.226-1.957L35.326,32.484
		L35.326,32.484z"/>
</g>
<path opacity="0.5" fill="none" stroke="#000000" stroke-miterlimit="10" enable-background="new    " d="M28.5,46"/>
<path opacity="0.5" fill="none" stroke="#000000" stroke-miterlimit="10" enable-background="new    " d="M28.5,6"/>
<path opacity="0.5" fill="none" stroke="#000000" stroke-miterlimit="10" enable-background="new    " d="M28.5,46"/>
<path opacity="0.5" fill="none" stroke="#000000" stroke-miterlimit="10" enable-background="new    " d="M2.5,51.75"/>
<path opacity="0.5" fill="none" stroke="#000000" stroke-miterlimit="10" enable-background="new    " d="M28.5,46"/>
<path opacity="0.5" fill="none" stroke="#000000" stroke-miterlimit="10" enable-background="new    " d="M54.5,51.75"/>
<path fill="none" stroke="#000000" stroke-miterlimit="10" d="M28.5,49.082"/>
<path fill="none" stroke="#000000" stroke-miterlimit="10" d="M47.5,38.75"/>
<path fill="none" stroke="#000000" stroke-miterlimit="10" d="M9.914,38.75"/>
<path fill="none" stroke="#000000" stroke-miterlimit="10" d="M28.5,49.082"/>
<polyline fill="none" stroke="#000000" stroke-width="0.5" stroke-miterlimit="10" points="47.025,38.453 28.5,48.25 9.975,38.453 
	"/>
<line fill="none" stroke="#000000" stroke-miterlimit="10" x1="28.5" y1="65" x2="28.5" y2="48"/>
<line fill="none" stroke="#000000" stroke-miterlimit="10" x1="28.5" y1="26" x2="28.5" y2="6"/>
<polyline fill="none" stroke="#000000" stroke-width="0.5" stroke-miterlimit="10" points="37.492,21.495 28.5,26.25 19.237,21.352 
	"/>
<path stroke="#000000" stroke-width="0.5" d="M32.393,0.851c0-0.622,0,1.127,0.991,1.127c0.548,0-0.991,0-0.991,1.127
	c0,0.622,0-1.127-0.99-1.127C30.854,1.978,32.393,1.978,32.393,0.851z"/>
<path stroke="#000000" stroke-width="0.5" d="M22.071,4.96c0-0.933,0,1.69,1.487,1.69c0.822,0-1.487,0-1.487,1.691
	c0,0.933,0-1.691-1.487-1.691C19.761,6.65,22.071,6.65,22.071,4.96z"/>
<g>
	<path d="M3.911,35.669c0.012-0.51,0.417-1.064,1.023-1.092c0.586-0.037,1.173,0.473,1.18,1.111c0.051,0.63-0.531,1.271-1.201,1.215
		c-0.32-0.011-0.623-0.199-0.787-0.443C3.954,36.216,3.9,35.93,3.911,35.669z M3.96,35.671c0.004,0.256,0.161,0.482,0.355,0.601
		c0.199,0.122,0.408,0.144,0.603,0.134c0.376-0.019,0.762-0.295,0.795-0.719c0.042-0.415-0.322-0.839-0.782-0.857
		C4.492,34.766,3.931,35.128,3.96,35.671z"/>
</g>
<g>
	<path d="M50.911,35.669c0.012-0.51,0.417-1.064,1.022-1.092c0.586-0.037,1.174,0.473,1.18,1.111c0.052,0.63-0.53,1.271-1.2,1.215
		c-0.32-0.011-0.623-0.199-0.787-0.443C50.954,36.216,50.9,35.93,50.911,35.669z M50.96,35.671c0.004,0.256,0.161,0.482,0.354,0.601
		c0.199,0.122,0.408,0.144,0.604,0.134c0.376-0.019,0.762-0.295,0.795-0.719c0.042-0.415-0.322-0.839-0.781-0.857
		C51.492,34.766,50.932,35.128,50.96,35.671z"/>
</g>
</svg>
