<?xml version="1.0" encoding="utf-8"?>
<!-- Generator: Adobe Illustrator 15.0.0, SVG Export Plug-In . SVG Version: 6.00 Build 0)  -->
<!DOCTYPE svg PUBLIC "-//W3C//DTD SVG 1.1//EN" "http://www.w3.org/Graphics/SVG/1.1/DTD/svg11.dtd">
<svg version="1.1" xmlns="http://www.w3.org/2000/svg" xmlns:xlink="http://www.w3.org/1999/xlink" x="0px" y="0px"
	 width="74.664px" height="71.5px" viewBox="0 0 74.664 71.5" enable-background="new 0 0 74.664 71.5" xml:space="preserve">
<g id="Layer_1">
	<path fill="none" stroke="#000000" stroke-width="0.2" stroke-miterlimit="10" d="M75.664,95.92"/>
	<path fill="none" stroke="#000000" stroke-width="0.2" stroke-miterlimit="10" d="M59.664,33.92"/>
	<path fill="none" stroke="#000000" stroke-width="0.351" d="M52.329,26.727"/>
	<path fill="none" stroke="#000000" stroke-width="0.3159" d="M49.334,26.023"/>
	<path fill="none" stroke="#000000" stroke-width="0.3159" d="M48.846,27.612"/>
	<path fill="none" stroke="#000000" stroke-width="0.351" d="M51.148,27.639"/>
	<path fill="none" stroke="#000000" stroke-width="0.351" d="M52.043,27.568"/>
	<g>
		<path fill="none" stroke="#000000" stroke-width="0.3159" d="M48.092,24.039c0.304-0.002,0.621,0.002,0.864,0.163
			c0.24,0.159,0.347,0.464,0.484,0.734c0.127,0.252,0.215,0.512,0.217,0.821s0.031,0.626-0.094,0.88
			c-0.133,0.271-0.415,0.426-0.653,0.588c-0.241,0.164-0.492,0.333-0.796,0.334c-0.304,0.002-0.6-0.099-0.843-0.26
			c-0.24-0.159-0.387-0.423-0.523-0.693c-0.127-0.252-0.172-0.521-0.174-0.831s-0.019-0.608,0.105-0.862
			c0.133-0.271,0.36-0.473,0.597-0.635C47.517,24.115,47.789,24.041,48.092,24.039z"/>
	</g>
	<g>
		<path d="M48.131,24.873c0.455-0.002,0.832,0.377,0.835,0.858c0.002,0.482-0.369,0.883-0.825,0.886
			c-0.455,0.003-0.801-0.394-0.804-0.876C47.335,25.26,47.676,24.875,48.131,24.873z"/>
		<path fill="none" stroke="#000000" stroke-width="0.3159" d="M48.131,24.873c0.455-0.002,0.832,0.377,0.835,0.858
			c0.002,0.482-0.369,0.883-0.825,0.886c-0.455,0.003-0.801-0.394-0.804-0.876C47.335,25.26,47.676,24.875,48.131,24.873z"/>
	</g>
	<g>
		<polygon fill="none" stroke="#000000" stroke-width="0.3159" stroke-linecap="round" stroke-linejoin="round" points="
			48.183,28.704 44.117,25.825 48.091,22.742 51.829,25.714 		"/>
	</g>
	<g>
		
			<line fill="none" stroke="#000000" stroke-width="0.3159" stroke-linejoin="round" x1="48.203" y1="28.745" x2="48.501" y2="34.543"/>
	</g>
	<path fill="none" stroke="#000000" stroke-width="0.4" stroke-linejoin="round" d="M49.041,39.97"/>
	<line fill="none" stroke="#000000" stroke-width="0.4" stroke-linejoin="round" x1="49.041" y1="40.22" x2="49.041" y2="40.22"/>
	<g>
		
			<line fill="none" stroke="#000000" stroke-width="0.3159" stroke-linecap="round" stroke-linejoin="round" x1="48.023" y1="18.38" x2="48.095" y2="22.865"/>
	</g>
	<g>
		<path d="M60.03,13.173c5.812,5.792,9.177,13.986,9.106,22.256c-0.006,4.125-0.735,8.282-2.301,12.149
			c-1.551,3.874-3.878,7.435-6.837,10.456c-5.84,6.023-14.262,9.696-22.845,9.679c-8.578-0.004-17.114-3.541-23.185-9.75
			c-2.947-3.083-5.334-6.808-6.877-10.812c-1.555-4.01-2.302-8.317-2.203-12.598C5.126,25.97,8.99,17.676,15.205,11.971
			c3.066-2.843,6.711-5.096,10.618-6.534c3.908-1.46,8.082-2.073,12.206-1.972C46.297,3.621,54.396,7.205,60.03,13.173z
			 M59.89,13.308c-5.665-5.871-13.718-9.317-21.867-9.383c-8.149-0.14-16.279,3.101-22.082,8.821
			c-5.86,5.652-9.305,13.695-9.37,21.832c-0.138,8.137,3.098,16.252,8.81,22.047c5.632,5.86,13.66,9.321,21.796,9.403
			c8.136,0.155,16.267-3.064,22.081-8.773c5.871-5.641,9.336-13.682,9.418-21.831C68.831,27.275,65.606,19.131,59.89,13.308z"/>
	</g>
	<g>
		<path fill="none" stroke="#000000" stroke-width="0.8" stroke-linecap="round" stroke-miterlimit="10" d="M-0.402,113.5"/>
	</g>
	<g>
		<path fill="none" stroke="#000000" stroke-width="0.8" stroke-linecap="round" stroke-miterlimit="10" d="M0,114.5"/>
	</g>
	<path fill="none" stroke="#000000" stroke-width="0.4" stroke-linecap="round" stroke-linejoin="round" d="M56.105,18.876"/>
	<path fill="none" stroke="#000000" stroke-width="0.4" stroke-linecap="round" stroke-linejoin="round" d="M56.105,18.876"/>
	<g enable-background="new    ">
		<g>
			<g>
				<path d="M21.804,49.205l0.256-6.265l0.125-6.271l-0.155-6.264l-3.575,0.184l0.086-2.414l3.689-4.286l3.168-4.601l8.08-0.021
					l-0.137,6.5l-0.27,6.47l0.18,6.479l0.003,6.506l-3.309,3.986l-8.112,0.166L21.804,49.205z M25.306,44.765l7.643,0.229
					l0.182-6.417l-0.157-6.309l-0.183-6.313l0.284-6.235l-7.606-0.431l-3.135,4.412l0.076,2.209l3.058,0.088l-0.271,6.248
					l0.182,6.272L25.306,44.765z"/>
				<path fill="none" stroke="#000000" stroke-width="0.081" stroke-miterlimit="10" d="M21.804,49.205l0.256-6.265l0.125-6.271
					l-0.155-6.264l-3.575,0.184l0.086-2.414l3.689-4.286l3.168-4.601l8.08-0.021l-0.137,6.5l-0.27,6.47l0.18,6.479l0.003,6.506
					l-3.309,3.986l-8.112,0.166L21.804,49.205z M25.306,44.765l7.643,0.229l0.182-6.417l-0.157-6.309l-0.183-6.313l0.284-6.235
					l-7.606-0.431l-3.135,4.412l0.076,2.209l3.058,0.088l-0.271,6.248l0.182,6.272L25.306,44.765z"/>
			</g>
			<g>
				<path d="M35.684,49.362l0.1-6.608l2.43-4.41l-2.189-0.062l-0.262-7.23l0.174-7.302l3.254-4.493l5.753-0.093l5.695,0.36
					l5.526,0.189l-0.17,6.283l-0.004,6.44l0.327,6.51l-4.209,5.183l-3.964,5.127l-6.112,0.038l-6.243-0.047L35.684,49.362z
					 M39.316,44.878l5.875,0.055l5.83-0.055l4.894-6.155l-0.271-6.299l0.157-6.259l0.123-6.177l-5.403,0.126l-5.496-0.357
					l-5.68-0.178l-0.171,7.392l0.018,7.367l5.002-0.266l4.759,0.348l-0.158,3.825l-4.649,0.02l-4.928,0.017L39.316,44.878z"/>
				<path fill="none" stroke="#000000" stroke-width="0.081" stroke-miterlimit="10" d="M35.684,49.362l0.1-6.608l2.43-4.41
					l-2.189-0.062l-0.262-7.23l0.174-7.302l3.254-4.493l5.753-0.093l5.695,0.36l5.526,0.189l-0.17,6.283l-0.004,6.44l0.327,6.51
					l-4.209,5.183l-3.964,5.127l-6.112,0.038l-6.243-0.047L35.684,49.362z M39.316,44.878l5.875,0.055l5.83-0.055l4.894-6.155
					l-0.271-6.299l0.157-6.259l0.123-6.177l-5.403,0.126l-5.496-0.357l-5.68-0.178l-0.171,7.392l0.018,7.367l5.002-0.266
					l4.759,0.348l-0.158,3.825l-4.649,0.02l-4.928,0.017L39.316,44.878z"/>
			</g>
		</g>
	</g>
	<g>
		<polyline fill="none" stroke="#000000" stroke-width="0.3159" points="46.806,30.04 47.684,30.371 48.56,30.051 49.44,30.331 		
			"/>
	</g>
	<path fill="none" stroke="#000000" stroke-width="0.4944" stroke-linecap="square" d="M34.562,49.812"/>
	<path fill="none" stroke="#000000" stroke-width="0.4944" stroke-linecap="square" d="M28.75,49.688"/>
</g>
<g id="ground" display="none">
	<g display="inline">
		
			<line fill="none" stroke="#000000" stroke-width="0.4944" stroke-linecap="square" x1="50.498" y1="49.699" x2="65.498" y2="49.96"/>
		
			<line fill="none" stroke="#000000" stroke-width="0.4944" stroke-linecap="square" x1="51.904" y1="51.181" x2="60.877" y2="51.338"/>
		
			<line fill="none" stroke="#000000" stroke-width="0.4944" stroke-linecap="square" x1="53.311" y1="52.665" x2="56.257" y2="52.716"/>
	</g>
	<g display="inline">
		
			<line fill="none" stroke="#000000" stroke-width="0.4944" stroke-linecap="square" x1="9.498" y1="49.756" x2="17.906" y2="49.901"/>
		
			<line fill="none" stroke="#000000" stroke-width="0.4944" stroke-linecap="square" x1="10.404" y1="51.229" x2="16.082" y2="51.328"/>
		
			<line fill="none" stroke="#000000" stroke-width="0.4944" stroke-linecap="square" x1="11.311" y1="52.704" x2="14.257" y2="52.756"/>
	</g>
	<g display="inline">
		
			<line fill="none" stroke="#000000" stroke-width="0.4944" stroke-linecap="square" x1="29.998" y1="52.496" x2="33.417" y2="52.667"/>
		
			<line fill="none" stroke="#000000" stroke-width="0.4944" stroke-linecap="square" x1="30.904" y1="53.954" x2="34.087" y2="54.04"/>
		
			<line fill="none" stroke="#000000" stroke-width="0.4944" stroke-linecap="square" x1="31.811" y1="55.413" x2="34.757" y2="55.413"/>
	</g>
</g>
<g id="top-divider" display="none">
	<g display="inline">
		<line fill="none" stroke="#000000" stroke-width="0.39" stroke-linecap="round" x1="18.156" y1="10.5" x2="56.906" y2="10.516"/>
		<polygon fill="none" stroke="#000000" stroke-width="0.39" points="21.773,12.146 20.859,10.562 21.773,8.979 23.602,8.979 
			24.516,10.562 23.602,12.146 		"/>
		<polygon fill="none" stroke="#000000" stroke-width="0.39" points="23.773,12.146 22.859,10.562 23.773,8.979 25.602,8.979 
			26.516,10.562 25.602,12.146 		"/>
		<polygon fill="none" stroke="#000000" stroke-width="0.39" points="30.773,12.146 29.859,10.562 30.773,8.979 32.602,8.979 
			33.516,10.562 32.602,12.146 		"/>
		<polygon fill="none" stroke="#000000" stroke-width="0.39" points="32.773,12.146 31.859,10.562 32.773,8.979 34.602,8.979 
			35.516,10.562 34.602,12.146 		"/>
		<polygon fill="none" stroke="#000000" stroke-width="0.39" points="40.773,12.146 39.859,10.562 40.773,8.979 42.602,8.979 
			43.516,10.562 42.602,12.146 		"/>
		<polygon fill="none" stroke="#000000" stroke-width="0.39" points="42.773,12.146 41.859,10.562 42.773,8.979 44.602,8.979 
			45.516,10.562 44.602,12.146 		"/>
		<polygon fill="none" stroke="#000000" stroke-width="0.39" points="49.773,12.146 48.859,10.562 49.773,8.979 51.602,8.979 
			52.516,10.562 51.602,12.146 		"/>
		<polygon fill="none" stroke="#000000" stroke-width="0.39" points="51.773,12.146 50.859,10.562 51.773,8.979 53.602,8.979 
			54.516,10.562 53.602,12.146 		"/>
		<g>
			<path fill="none" stroke="#000000" stroke-width="0.225" d="M19.33,13.252"/>
			<line fill="none" stroke="#000000" stroke-width="0.225" x1="19.33" y1="13.873" x2="19.33" y2="11.799"/>
			<line fill="none" stroke="#000000" stroke-width="0.225" x1="19.959" y1="13.691" x2="18.736" y2="12.014"/>
			<line fill="none" stroke="#000000" stroke-width="0.225" x1="20.358" y1="13.176" x2="18.385" y2="12.537"/>
			<line fill="none" stroke="#000000" stroke-width="0.225" x1="20.381" y1="12.523" x2="18.407" y2="13.167"/>
			<line fill="none" stroke="#000000" stroke-width="0.225" x1="20.013" y1="11.983" x2="18.794" y2="13.662"/>
		</g>
		<g>
			<path fill="none" stroke="#000000" stroke-width="0.225" d="M56.038,13.293"/>
			<line fill="none" stroke="#000000" stroke-width="0.225" x1="56.038" y1="13.915" x2="56.038" y2="11.84"/>
			<line fill="none" stroke="#000000" stroke-width="0.225" x1="56.667" y1="13.733" x2="55.444" y2="12.055"/>
			<line fill="none" stroke="#000000" stroke-width="0.225" x1="57.066" y1="13.217" x2="55.093" y2="12.579"/>
			<line fill="none" stroke="#000000" stroke-width="0.225" x1="57.089" y1="12.565" x2="55.115" y2="13.208"/>
			<line fill="none" stroke="#000000" stroke-width="0.225" x1="56.721" y1="12.025" x2="55.502" y2="13.704"/>
		</g>
		<g>
			<path fill="none" stroke="#000000" stroke-width="0.225" d="M27.83,13.21"/>
			<line fill="none" stroke="#000000" stroke-width="0.225" x1="27.83" y1="13.832" x2="27.83" y2="11.757"/>
			<line fill="none" stroke="#000000" stroke-width="0.225" x1="28.459" y1="13.65" x2="27.236" y2="11.972"/>
			<line fill="none" stroke="#000000" stroke-width="0.225" x1="28.858" y1="13.134" x2="26.885" y2="12.496"/>
			<line fill="none" stroke="#000000" stroke-width="0.225" x1="28.881" y1="12.482" x2="26.907" y2="13.125"/>
			<line fill="none" stroke="#000000" stroke-width="0.225" x1="28.513" y1="11.942" x2="27.294" y2="13.621"/>
		</g>
		<g>
			<path fill="none" stroke="#000000" stroke-width="0.225" d="M37.33,13.252"/>
			<line fill="none" stroke="#000000" stroke-width="0.225" x1="37.33" y1="13.873" x2="37.33" y2="11.799"/>
			<line fill="none" stroke="#000000" stroke-width="0.225" x1="37.959" y1="13.691" x2="36.736" y2="12.014"/>
			<line fill="none" stroke="#000000" stroke-width="0.225" x1="38.358" y1="13.176" x2="36.385" y2="12.537"/>
			<line fill="none" stroke="#000000" stroke-width="0.225" x1="38.381" y1="12.523" x2="36.407" y2="13.167"/>
			<line fill="none" stroke="#000000" stroke-width="0.225" x1="38.013" y1="11.983" x2="36.794" y2="13.662"/>
		</g>
		<g>
			<path fill="none" stroke="#000000" stroke-width="0.225" d="M47.08,13.252"/>
			<line fill="none" stroke="#000000" stroke-width="0.225" x1="47.08" y1="13.873" x2="47.08" y2="11.799"/>
			<line fill="none" stroke="#000000" stroke-width="0.225" x1="47.709" y1="13.691" x2="46.486" y2="12.014"/>
			<line fill="none" stroke="#000000" stroke-width="0.225" x1="48.108" y1="13.176" x2="46.135" y2="12.537"/>
			<line fill="none" stroke="#000000" stroke-width="0.225" x1="48.131" y1="12.523" x2="46.157" y2="13.167"/>
			<line fill="none" stroke="#000000" stroke-width="0.225" x1="47.763" y1="11.983" x2="46.544" y2="13.662"/>
		</g>
		<g>
			<path fill="none" stroke="#000000" stroke-width="0.1688" d="M15.594,15.232"/>
			<line fill="none" stroke="#000000" stroke-width="0.1688" x1="15.594" y1="15.698" x2="15.594" y2="14.142"/>
			<line fill="none" stroke="#000000" stroke-width="0.1688" x1="16.064" y1="15.561" x2="15.148" y2="14.303"/>
			<line fill="none" stroke="#000000" stroke-width="0.1688" x1="16.364" y1="15.174" x2="14.885" y2="14.696"/>
			<line fill="none" stroke="#000000" stroke-width="0.1688" x1="16.381" y1="14.685" x2="14.901" y2="15.167"/>
			<line fill="none" stroke="#000000" stroke-width="0.1688" x1="16.105" y1="14.281" x2="15.191" y2="15.54"/>
		</g>
		<g>
			<path fill="none" stroke="#000000" stroke-width="0.1688" d="M23.594,15.232"/>
			<line fill="none" stroke="#000000" stroke-width="0.1688" x1="23.594" y1="15.698" x2="23.594" y2="14.142"/>
			<line fill="none" stroke="#000000" stroke-width="0.1688" x1="24.064" y1="15.561" x2="23.148" y2="14.303"/>
			<line fill="none" stroke="#000000" stroke-width="0.1688" x1="24.364" y1="15.174" x2="22.885" y2="14.696"/>
			<line fill="none" stroke="#000000" stroke-width="0.1688" x1="24.381" y1="14.685" x2="22.901" y2="15.167"/>
			<line fill="none" stroke="#000000" stroke-width="0.1688" x1="24.105" y1="14.281" x2="23.191" y2="15.54"/>
		</g>
		<g>
			<path fill="none" stroke="#000000" stroke-width="0.1688" d="M32.594,15.232"/>
			<line fill="none" stroke="#000000" stroke-width="0.1688" x1="32.594" y1="15.698" x2="32.594" y2="14.142"/>
			<line fill="none" stroke="#000000" stroke-width="0.1688" x1="33.064" y1="15.561" x2="32.148" y2="14.303"/>
			<line fill="none" stroke="#000000" stroke-width="0.1688" x1="33.364" y1="15.174" x2="31.885" y2="14.696"/>
			<line fill="none" stroke="#000000" stroke-width="0.1688" x1="33.381" y1="14.685" x2="31.901" y2="15.167"/>
			<line fill="none" stroke="#000000" stroke-width="0.1688" x1="33.105" y1="14.281" x2="32.191" y2="15.54"/>
		</g>
		<g>
			<path fill="none" stroke="#000000" stroke-width="0.1688" d="M42.594,15.232"/>
			<line fill="none" stroke="#000000" stroke-width="0.1688" x1="42.594" y1="15.698" x2="42.594" y2="14.142"/>
			<line fill="none" stroke="#000000" stroke-width="0.1688" x1="43.064" y1="15.561" x2="42.148" y2="14.303"/>
			<line fill="none" stroke="#000000" stroke-width="0.1688" x1="43.364" y1="15.174" x2="41.885" y2="14.696"/>
			<line fill="none" stroke="#000000" stroke-width="0.1688" x1="43.381" y1="14.685" x2="41.901" y2="15.167"/>
			<line fill="none" stroke="#000000" stroke-width="0.1688" x1="43.105" y1="14.281" x2="42.191" y2="15.54"/>
		</g>
		<g>
			<path fill="none" stroke="#000000" stroke-width="0.1688" d="M51.594,15.232"/>
			<line fill="none" stroke="#000000" stroke-width="0.1688" x1="51.594" y1="15.698" x2="51.594" y2="14.142"/>
			<line fill="none" stroke="#000000" stroke-width="0.1688" x1="52.064" y1="15.561" x2="51.148" y2="14.303"/>
			<line fill="none" stroke="#000000" stroke-width="0.1688" x1="52.364" y1="15.174" x2="50.885" y2="14.696"/>
			<line fill="none" stroke="#000000" stroke-width="0.1688" x1="52.381" y1="14.685" x2="50.901" y2="15.167"/>
			<line fill="none" stroke="#000000" stroke-width="0.1688" x1="52.105" y1="14.281" x2="51.191" y2="15.54"/>
		</g>
		<g>
			<path fill="none" stroke="#000000" stroke-width="0.1688" d="M59.594,15.232"/>
			<line fill="none" stroke="#000000" stroke-width="0.1688" x1="59.594" y1="15.698" x2="59.594" y2="14.142"/>
			<line fill="none" stroke="#000000" stroke-width="0.1688" x1="60.064" y1="15.561" x2="59.148" y2="14.303"/>
			<line fill="none" stroke="#000000" stroke-width="0.1688" x1="60.364" y1="15.174" x2="58.885" y2="14.696"/>
			<line fill="none" stroke="#000000" stroke-width="0.1688" x1="60.381" y1="14.685" x2="58.901" y2="15.167"/>
			<line fill="none" stroke="#000000" stroke-width="0.1688" x1="60.105" y1="14.281" x2="59.191" y2="15.54"/>
		</g>
	</g>
</g>
<g id="bottom-divider">
	<g>
		<g>
			<polygon stroke="#000000" stroke-width="0.4161" points="34.367,63.899 35.871,63.044 35.861,64.777 			"/>
			<polygon stroke="#000000" stroke-width="0.4161" points="36.267,63.04 37.763,63.916 36.258,64.772 			"/>
		</g>
		<line fill="none" stroke="#000000" stroke-width="0.39" x1="25.031" y1="63.938" x2="50.031" y2="63.938"/>
		<g>
			<polygon stroke="#000000" stroke-width="0.4161" points="36.367,63.917 37.871,63.062 37.861,64.794 			"/>
			<polygon stroke="#000000" stroke-width="0.4161" points="38.267,63.058 39.763,63.934 38.258,64.79 			"/>
		</g>
		<g>
			<polygon stroke="#000000" stroke-width="0.4161" points="38.367,63.935 39.871,63.079 39.861,64.812 			"/>
			<polygon stroke="#000000" stroke-width="0.4161" points="40.267,63.075 41.763,63.951 40.258,64.808 			"/>
		</g>
	</g>
	<g>
		<g>
			<g>
				<path fill="none" stroke="#000000" stroke-width="0.3929" d="M46.801,59.424c0.005-0.539,0.442-0.973,0.988-0.969
					c0.547,0.006,0.952,0.447,0.947,0.985c-0.005,0.539-0.418,0.958-0.965,0.952C47.225,60.389,46.796,59.963,46.801,59.424z"/>
			</g>
			<g>
				<path fill="none" stroke="#000000" stroke-width="0.3929" d="M40.216,59.363c0.005-0.539,0.422-0.953,0.969-0.948
					c0.547,0.006,0.979,0.428,0.974,0.967s-0.445,0.942-0.992,0.938C40.621,60.314,40.211,59.902,40.216,59.363z"/>
			</g>
			<g>
				<path fill="none" stroke="#000000" stroke-width="0.3929" d="M33.513,59.304c0.004-0.539,0.424-0.983,0.971-0.979
					c0.547,0.006,0.996,0.458,0.991,0.996c-0.005,0.539-0.463,0.98-1.01,0.975C33.919,60.291,33.508,59.843,33.513,59.304z"/>
			</g>
			<g>
				<path fill="none" stroke="#000000" stroke-width="0.3929" stroke-linecap="square" d="M54.527,62.228
					c-1.663-0.009-1.655-1.68-3.318-1.688c-1.664-0.009-1.668,0.762-3.332,0.753c-1.665-0.009-1.657-1.509-3.322-1.518
					c-1.665-0.009-1.677,2.29-3.342,2.281c-1.663-0.009-1.653-1.839-3.316-1.848c-1.665-0.009-1.671,1.115-3.335,1.106
					c-1.665-0.009-1.66-0.949-3.325-0.958c-1.666-0.009-1.671,1.138-3.337,1.129c-1.668-0.009-1.662-1.31-3.33-1.318
					c-1.668-0.009-1.675,1.392-3.343,1.383"/>
			</g>
			<g>
				<path fill="none" stroke="#000000" stroke-width="0.3929" d="M26.816,59.244c0.005-0.539,0.43-0.951,0.977-0.947
					c0.547,0.006,1.024,0.426,1.02,0.965c-0.005,0.539-0.492,0.986-1.038,0.98C27.228,60.239,26.811,59.783,26.816,59.244z"/>
			</g>
			<g>
				<path fill="none" stroke="#000000" stroke-width="0.3929" d="M20.687,59.19c0.005-0.539,0.471-0.978,1.018-0.972
					c0.547,0.005,0.988,0.449,0.983,0.988s-0.455,0.996-1.001,0.991C21.14,60.192,20.682,59.729,20.687,59.19z"/>
			</g>
			<g>
				<path fill="none" stroke="#000000" stroke-width="0.3929" d="M53.169,59.48c0.004-0.539,0.459-0.952,1.006-0.947
					c0.548,0.006,1.001,0.427,0.997,0.965c-0.006,0.539-0.469,0.981-1.016,0.976C53.609,60.469,53.163,60.02,53.169,59.48z"/>
			</g>
		</g>
	</g>
</g>
<g id="unwanted" display="none">
	
		<polyline display="inline" fill="none" stroke="#000000" stroke-width="0.3551" stroke-linecap="square" stroke-linejoin="bevel" points="
		30.732,30.708 26.042,34 21.478,30.728 	"/>
	
		<polyline display="inline" fill="none" stroke="#000000" stroke-width="0.3551" stroke-linecap="square" stroke-linejoin="bevel" points="
		21.478,33.981 26.02,30.622 30.732,33.961 	"/>
</g>
</svg>
